<svg width="16" height="16" viewBox="0 0 16 16" fill="none" xmlns="http://www.w3.org/2000/svg">
<g clip-path="url(#clip0_81_2653)">
<path d="M14.5 8.74998H2.5V3.12498C2.49942 2.91315 2.54086 2.7033 2.62193 2.50759C2.703 2.31188 2.82208 2.1342 2.97228 1.98482L2.98478 1.97232C3.22018 1.73727 3.5224 1.58063 3.85016 1.52379C4.17792 1.46695 4.51524 1.51269 4.81603 1.65476C4.53196 2.12707 4.41389 2.68077 4.48057 3.22788C4.54726 3.77499 4.79488 4.28411 5.18409 4.67436L5.52631 5.01657L4.89641 5.64651L5.60347 6.35357L6.23338 5.72367L9.72366 2.23345L10.3536 1.60354L9.64647 0.896448L9.01653 1.52635L8.67431 1.18414C8.26458 0.775551 7.72448 0.523685 7.14812 0.472427C6.57176 0.421169 5.99568 0.573769 5.52028 0.903636C5.01897 0.587046 4.4249 0.450372 3.83564 0.516066C3.24638 0.58176 2.69699 0.845914 2.27772 1.26514L2.26522 1.27764C2.02186 1.51967 1.82892 1.80756 1.69757 2.12466C1.56622 2.44176 1.49907 2.78176 1.5 3.12498V8.74998H0.5V9.74998H1.5V10.7094C1.49998 10.79 1.51298 10.87 1.5385 10.9465L2.46875 13.7371C2.51839 13.8865 2.61385 14.0165 2.74156 14.1086C2.86928 14.2006 3.02275 14.2501 3.18019 14.25H3.58331L3.21875 15.5H4.26041L4.625 14.25H11.1281L11.5031 15.5H12.5469L12.1719 14.25H12.8197C12.9771 14.2501 13.1306 14.2007 13.2584 14.1086C13.3861 14.0165 13.4816 13.8866 13.5312 13.7371L14.4614 10.9465C14.487 10.87 14.5 10.79 14.5 10.7094V9.74998H15.5V8.74998H14.5ZM5.89125 1.89123C6.16675 1.61633 6.54004 1.46194 6.92923 1.46194C7.31842 1.46194 7.69172 1.61633 7.96722 1.89123L8.30937 2.23345L6.23347 4.30935L5.89125 3.9672C5.61637 3.69169 5.46199 3.3184 5.46199 2.92921C5.46199 2.54003 5.61637 2.16674 5.89125 1.89123V1.89123ZM13.5 10.6687L12.6396 13.25H3.36037L2.5 10.6687V9.74998H13.5V10.6687Z" fill="#FFFBFB" fill-opacity="0.65"/>
</g>
<defs>
<clipPath id="clip0_81_2653">
<rect width="16" height="16" fill="white"/>
</clipPath>
</defs>
</svg>
