<svg width="16" height="16" viewBox="0 0 16 16" fill="none" xmlns="http://www.w3.org/2000/svg">
<path d="M10.7996 2.40002C11.3074 2.39995 11.7962 2.59301 12.1668 2.94006C12.5375 3.2871 12.7623 3.76214 12.7956 4.26882L12.7996 4.40002V6.44002C13.2283 6.5277 13.6164 6.75347 13.9045 7.08276C14.1926 7.41205 14.3648 7.82671 14.3948 8.26323L14.3996 8.40002V13.2C14.3998 13.3 14.3625 13.3964 14.2952 13.4703C14.2279 13.5441 14.1353 13.5901 14.0358 13.5991C13.9362 13.6082 13.8369 13.5796 13.7573 13.519C13.6778 13.4585 13.6238 13.3704 13.606 13.272L13.5996 13.2V11.2H2.39961V13.2C2.39979 13.3 2.36255 13.3964 2.2952 13.4703C2.22786 13.5441 2.1353 13.5901 2.03575 13.5991C1.9362 13.6082 1.83688 13.5796 1.75734 13.519C1.67781 13.4585 1.62382 13.3704 1.60601 13.272L1.59961 13.2V8.40002C1.59952 7.93896 1.75872 7.49203 2.05029 7.13486C2.34185 6.7777 2.74786 6.53224 3.19961 6.44002V4.40002C3.19953 3.89225 3.3926 3.40346 3.73964 3.03279C4.08669 2.66212 4.56173 2.43733 5.06841 2.40402L5.19961 2.40002H10.7996ZM12.3996 7.20002H3.59961C3.30143 7.20002 3.01393 7.31103 2.79312 7.51142C2.57232 7.71182 2.43403 7.98724 2.40521 8.28402L2.39961 8.40002V10.4H13.5996V8.40002C13.5996 8.10184 13.4886 7.81434 13.2882 7.59354C13.0878 7.37274 12.8124 7.23445 12.5156 7.20562L12.3996 7.20002ZM10.7996 3.20002H5.19961C4.9013 3.20004 4.6137 3.31116 4.39287 3.51172C4.17205 3.71228 4.03385 3.9879 4.00521 4.28482L3.99961 4.40002V6.40002H4.79961V6.00002C4.79961 5.89394 4.84175 5.7922 4.91677 5.71718C4.99178 5.64217 5.09352 5.60002 5.19961 5.60002H7.19961C7.3057 5.60002 7.40744 5.64217 7.48245 5.71718C7.55747 5.7922 7.59961 5.89394 7.59961 6.00002V6.40002H8.39961V6.00002C8.39961 5.89394 8.44175 5.7922 8.51677 5.71718C8.59178 5.64217 8.69352 5.60002 8.79961 5.60002H10.7996C10.9057 5.60002 11.0074 5.64217 11.0825 5.71718C11.1575 5.7922 11.1996 5.89394 11.1996 6.00002V6.40002H11.9996V4.40002C11.9996 4.10184 11.8886 3.81434 11.6882 3.59354C11.4878 3.37274 11.2124 3.23445 10.9156 3.20562L10.7996 3.20002Z" fill="#FFFBFB" fill-opacity="0.65"/>
</svg>
